
<svg width="100" height="70" xmlns="http://www.w3.org/2000/svg" xmlns:svg="http://www.w3.org/2000/svg">
   
  <path d="m2,68l21,0l1.5,-18l-19.5,-4.5l-3,22.5zm3.75,-25.5l18.75,4.5l4.5,-15.75l-15.75,-8.25l-7.5,19.5zm9,-22.5l15,8.25l12,-8.25l-11.25,-12.75l-15.75,12.75zm84,48l-21,0l-1.5,-18l19.5,-4.5l3,22.5zm-3.75,-25.5l-18.75,4.5l-4.5,-15.75l15.75,-8.25l7.5,19.5zm-9,-22.5l-15,8.25l-12,-8.25l11.25,-12.75l15.75,12.75zm-51.75,-15l11.25,13.5l10.5,0l9.75,-13.5l-9.75,-3l-10.76,0l-10.99,3z" fill="#4c4c4c" />
  <path d="m2,68l21,0l1.5,-18l-19.5,-4.5l-3,22.5z" fill="#9c0000" />
  <path d="m5.75,42.5l18.75,4.5l4.5,-15.75l-15.75,-8.25l-7.5,19.5z" fill="#b50808" />
  <path d="m14.75,20l15,8.25l12,-8.25l-11.25,-12.75l-15.75,12.75z" fill="#c61818" />
  <path d="m98.75,68l-21,0l-1.5,-18l19.5,-4.5l3,22.5z" fill="#9c0000" />
  <path d="m95,42.5l-18.75,4.5l-4.5,-15.75l15.75,-8.25l7.5,19.5z" fill="#b50808" />
  <path d="m86,20l-15,8.25l-12,-8.25l11.25,-12.75l15.75,12.75z" fill="#c61818" />
  <path d="m34.25,5l11.25,13.5l10.5,0l9.75,-13.5l-9.75,-3l-10.76,0l-10.99,3z" fill="#ce3129" /> 
</svg>