<svg width="44" height="43" viewBox="0 0 44 43" fill="none" xmlns="http://www.w3.org/2000/svg">
<path d="M16.6246 23.2908C15.4421 23.882 14.4567 24.7599 13.7221 25.8529C13.3101 26.4799 13.3101 27.2683 13.7221 27.8954C14.4567 28.9883 15.4421 29.8662 16.6246 30.4574" stroke="#fe3756" stroke-width="3.01538" stroke-linecap="round" stroke-linejoin="round"/>
<path d="M27.751 23.2908C28.9335 23.882 29.9189 24.7599 30.6535 25.8529C31.0656 26.4799 31.0656 27.2683 30.6535 27.8954C29.9189 28.9883 28.9335 29.8662 27.751 30.4574" stroke="#fe3756" stroke-width="3.01538" stroke-linecap="round" stroke-linejoin="round"/>
<path d="M16.6247 39.4161H27.3747C36.333 39.4161 39.9163 35.8328 39.9163 26.8744V16.1244C39.9163 7.1661 36.333 3.58276 27.3747 3.58276H16.6247C7.66634 3.58276 4.08301 7.1661 4.08301 16.1244V26.8744C4.08301 35.8328 7.66634 39.4161 16.6247 39.4161Z" stroke="#fe3756" stroke-width="3.01538" stroke-linecap="round" stroke-linejoin="round"/>
<path d="M4.49512 14.3509L38.9309 14.333" stroke="#fe3756" stroke-width="3.01538" stroke-linecap="round" stroke-linejoin="round"/>
</svg>
